<mxfile host="app.diagrams.net" modified="2024-03-15T23:05:59.866Z" agent="Mozilla/5.0 (X11; Linux x86_64) AppleWebKit/537.36 (KHTML, like Gecko) Chrome/122.0.0.0 Safari/537.36" etag="fyYv26D0kYaHq2NVdYAe" version="24.0.6" type="github">
  <diagram name="Page-1" id="tr5XUTzkcKNs_bCtuYXE">
    <mxGraphModel dx="1819" dy="1012" grid="1" gridSize="10" guides="1" tooltips="1" connect="1" arrows="1" fold="1" page="1" pageScale="1" pageWidth="1654" pageHeight="1169" math="0" shadow="0">
      <root>
        <mxCell id="0" />
        <mxCell id="1" parent="0" />
        <mxCell id="oe4inus-EE1RmJJnrVE--1" value="" style="rounded=0;whiteSpace=wrap;html=1;strokeWidth=2;fillColor=#f4f425;strokeColor=#B09500;fontColor=#000000;" vertex="1" parent="1">
          <mxGeometry x="85" y="176" width="1235" height="372" as="geometry" />
        </mxCell>
        <mxCell id="oe4inus-EE1RmJJnrVE--2" value="&lt;font style=&quot;font-size: 18px;&quot;&gt;&lt;b style=&quot;&quot;&gt;1. Process Customer Inquiry&lt;/b&gt;&lt;/font&gt;" style="text;html=1;align=center;verticalAlign=middle;whiteSpace=wrap;rounded=0;" vertex="1" parent="1">
          <mxGeometry x="40" y="188" width="360" height="30" as="geometry" />
        </mxCell>
        <mxCell id="oe4inus-EE1RmJJnrVE--3" value="&lt;div&gt;&lt;font style=&quot;font-size: 14px;&quot;&gt;&lt;b&gt;1.1&lt;/b&gt;&lt;/font&gt;&lt;/div&gt;&lt;font size=&quot;3&quot;&gt;&lt;b&gt;Verify Customer Details&lt;/b&gt;&lt;/font&gt;" style="rounded=0;whiteSpace=wrap;html=1;" vertex="1" parent="1">
          <mxGeometry x="128" y="283" width="210" height="60" as="geometry" />
        </mxCell>
        <mxCell id="oe4inus-EE1RmJJnrVE--4" value="&lt;div&gt;&lt;font style=&quot;font-size: 14px;&quot;&gt;&lt;b&gt;1.3&lt;/b&gt;&lt;/font&gt;&lt;/div&gt;&lt;font size=&quot;3&quot;&gt;&lt;b&gt;Determine Viewing Suitability&amp;nbsp;&amp;nbsp;&lt;/b&gt;&lt;/font&gt;" style="rounded=0;whiteSpace=wrap;html=1;" vertex="1" parent="1">
          <mxGeometry x="658" y="285.5" width="250" height="60" as="geometry" />
        </mxCell>
        <mxCell id="oe4inus-EE1RmJJnrVE--5" value="&lt;div&gt;&lt;font style=&quot;font-size: 14px;&quot;&gt;&lt;b&gt;1.2&lt;/b&gt;&lt;/font&gt;&lt;/div&gt;&lt;font size=&quot;3&quot;&gt;&lt;b&gt;Check Property Availability&lt;/b&gt;&lt;/font&gt;" style="rounded=0;whiteSpace=wrap;html=1;" vertex="1" parent="1">
          <mxGeometry x="413" y="283" width="210" height="60" as="geometry" />
        </mxCell>
        <mxCell id="oe4inus-EE1RmJJnrVE--6" value="&lt;b&gt;&amp;nbsp;D1&amp;nbsp; &amp;nbsp; Customer Records&lt;/b&gt;" style="html=1;dashed=0;whitespace=wrap;shape=mxgraph.dfd.dataStoreID;align=left;spacingLeft=3;points=[[0,0],[0.5,0],[1,0],[0,0.5],[1,0.5],[0,1],[0.5,1],[1,1]];shadow=0;glass=0;comic=0;labelBackgroundColor=none;strokeWidth=3;fillColor=none;fontColor=#000000;" vertex="1" parent="1">
          <mxGeometry x="88" y="598" width="150" height="30" as="geometry" />
        </mxCell>
        <mxCell id="oe4inus-EE1RmJJnrVE--7" value="&lt;b&gt;&amp;nbsp;D2&amp;nbsp; &amp;nbsp; &amp;nbsp; &amp;nbsp; &amp;nbsp;Property Records&lt;/b&gt;" style="html=1;dashed=0;whitespace=wrap;shape=mxgraph.dfd.dataStoreID;align=left;spacingLeft=3;points=[[0,0],[0.5,0],[1,0],[0,0.5],[1,0.5],[0,1],[0.5,1],[1,1]];shadow=0;glass=0;comic=0;labelBackgroundColor=none;strokeWidth=3;fillColor=none;fontColor=#000000;" vertex="1" parent="1">
          <mxGeometry x="438" y="598" width="180" height="30" as="geometry" />
        </mxCell>
        <mxCell id="oe4inus-EE1RmJJnrVE--8" value="&lt;b&gt;&amp;nbsp;D3&amp;nbsp; &amp;nbsp; &amp;nbsp; &amp;nbsp; &amp;nbsp;Viewing Appointments&lt;/b&gt;" style="html=1;dashed=0;whitespace=wrap;shape=mxgraph.dfd.dataStoreID;align=left;spacingLeft=3;points=[[0,0],[0.5,0],[1,0],[0,0.5],[1,0.5],[0,1],[0.5,1],[1,1]];shadow=0;glass=0;comic=0;labelBackgroundColor=none;strokeWidth=3;fillColor=none;fontColor=#000000;" vertex="1" parent="1">
          <mxGeometry x="708" y="103" width="190" height="30" as="geometry" />
        </mxCell>
        <mxCell id="oe4inus-EE1RmJJnrVE--9" value="&lt;b&gt;Customers&lt;/b&gt;" style="ellipse;whiteSpace=wrap;html=1;strokeWidth=2;" vertex="1" parent="1">
          <mxGeometry x="258" y="20" width="120" height="80" as="geometry" />
        </mxCell>
        <mxCell id="oe4inus-EE1RmJJnrVE--10" value="" style="endArrow=classic;html=1;rounded=0;exitX=0.053;exitY=-0.067;exitDx=0;exitDy=0;exitPerimeter=0;entryX=0;entryY=0.5;entryDx=0;entryDy=0;strokeWidth=2;" edge="1" parent="1" source="oe4inus-EE1RmJJnrVE--6" target="oe4inus-EE1RmJJnrVE--3">
          <mxGeometry width="50" height="50" relative="1" as="geometry">
            <mxPoint x="468" y="388" as="sourcePoint" />
            <mxPoint x="518" y="338" as="targetPoint" />
            <Array as="points">
              <mxPoint x="98" y="353" />
            </Array>
          </mxGeometry>
        </mxCell>
        <mxCell id="oe4inus-EE1RmJJnrVE--11" value="" style="endArrow=classic;html=1;rounded=0;exitX=0.539;exitY=-0.133;exitDx=0;exitDy=0;exitPerimeter=0;entryX=0.571;entryY=1.017;entryDx=0;entryDy=0;entryPerimeter=0;strokeWidth=2;" edge="1" parent="1" source="oe4inus-EE1RmJJnrVE--7" target="oe4inus-EE1RmJJnrVE--5">
          <mxGeometry width="50" height="50" relative="1" as="geometry">
            <mxPoint x="468" y="388" as="sourcePoint" />
            <mxPoint x="518" y="338" as="targetPoint" />
          </mxGeometry>
        </mxCell>
        <mxCell id="oe4inus-EE1RmJJnrVE--12" value="" style="endArrow=classic;html=1;rounded=0;exitX=0.421;exitY=1;exitDx=0;exitDy=0;exitPerimeter=0;entryX=0.5;entryY=0;entryDx=0;entryDy=0;strokeWidth=2;" edge="1" parent="1" source="oe4inus-EE1RmJJnrVE--8" target="oe4inus-EE1RmJJnrVE--4">
          <mxGeometry width="50" height="50" relative="1" as="geometry">
            <mxPoint x="468" y="388" as="sourcePoint" />
            <mxPoint x="518" y="338" as="targetPoint" />
          </mxGeometry>
        </mxCell>
        <mxCell id="oe4inus-EE1RmJJnrVE--13" value="&lt;b&gt;Request for verify(Customer Inquiry)&lt;/b&gt;" style="text;html=1;align=center;verticalAlign=middle;whiteSpace=wrap;rounded=0;" vertex="1" parent="1">
          <mxGeometry x="83" y="110" width="200" height="30" as="geometry" />
        </mxCell>
        <mxCell id="oe4inus-EE1RmJJnrVE--14" value="&lt;b&gt;Supply the Customer Record&lt;/b&gt;" style="text;html=1;align=center;verticalAlign=middle;whiteSpace=wrap;rounded=0;" vertex="1" parent="1">
          <mxGeometry x="98" y="550" width="170" height="30" as="geometry" />
        </mxCell>
        <mxCell id="oe4inus-EE1RmJJnrVE--15" value="" style="endArrow=classic;html=1;rounded=0;exitX=0;exitY=0.5;exitDx=0;exitDy=0;strokeWidth=2;entryX=0.205;entryY=-0.033;entryDx=0;entryDy=0;entryPerimeter=0;" edge="1" parent="1" source="oe4inus-EE1RmJJnrVE--9" target="oe4inus-EE1RmJJnrVE--3">
          <mxGeometry width="50" height="50" relative="1" as="geometry">
            <mxPoint x="397" y="124" as="sourcePoint" />
            <mxPoint x="518" y="338" as="targetPoint" />
            <Array as="points">
              <mxPoint x="168" y="60" />
            </Array>
          </mxGeometry>
        </mxCell>
        <mxCell id="oe4inus-EE1RmJJnrVE--16" value="" style="endArrow=classic;html=1;rounded=0;exitX=0.8;exitY=1.017;exitDx=0;exitDy=0;entryX=1;entryY=0;entryDx=0;entryDy=0;exitPerimeter=0;endSize=7;strokeWidth=2;" edge="1" parent="1" source="oe4inus-EE1RmJJnrVE--3" target="oe4inus-EE1RmJJnrVE--6">
          <mxGeometry width="50" height="50" relative="1" as="geometry">
            <mxPoint x="468" y="388" as="sourcePoint" />
            <mxPoint x="518" y="338" as="targetPoint" />
            <Array as="points">
              <mxPoint x="296" y="598" />
            </Array>
          </mxGeometry>
        </mxCell>
        <mxCell id="oe4inus-EE1RmJJnrVE--17" value="&lt;b&gt;Request to Access customer Details&lt;/b&gt;" style="text;html=1;align=center;verticalAlign=middle;resizable=0;points=[];autosize=1;strokeColor=none;fillColor=none;" vertex="1" parent="1">
          <mxGeometry x="183" y="445" width="230" height="30" as="geometry" />
        </mxCell>
        <mxCell id="oe4inus-EE1RmJJnrVE--18" value="&lt;b&gt;Providing the Property Data&lt;/b&gt;" style="text;html=1;align=center;verticalAlign=middle;resizable=0;points=[];autosize=1;strokeColor=none;fillColor=none;" vertex="1" parent="1">
          <mxGeometry x="467" y="548" width="180" height="30" as="geometry" />
        </mxCell>
        <mxCell id="oe4inus-EE1RmJJnrVE--19" value="" style="endArrow=classic;html=1;rounded=0;exitX=1;exitY=0.5;exitDx=0;exitDy=0;entryX=0;entryY=0.5;entryDx=0;entryDy=0;strokeWidth=2;" edge="1" parent="1" source="oe4inus-EE1RmJJnrVE--3" target="oe4inus-EE1RmJJnrVE--5">
          <mxGeometry width="50" height="50" relative="1" as="geometry">
            <mxPoint x="468" y="228" as="sourcePoint" />
            <mxPoint x="518" y="178" as="targetPoint" />
          </mxGeometry>
        </mxCell>
        <mxCell id="oe4inus-EE1RmJJnrVE--20" value="" style="endArrow=classic;html=1;rounded=0;exitX=1;exitY=0.25;exitDx=0;exitDy=0;strokeWidth=2;entryX=0.817;entryY=0.988;entryDx=0;entryDy=0;entryPerimeter=0;" edge="1" parent="1" source="oe4inus-EE1RmJJnrVE--3" target="oe4inus-EE1RmJJnrVE--9">
          <mxGeometry width="50" height="50" relative="1" as="geometry">
            <mxPoint x="468" y="388" as="sourcePoint" />
            <mxPoint x="448.96000000000004" y="126" as="targetPoint" />
            <Array as="points">
              <mxPoint x="358" y="298" />
            </Array>
          </mxGeometry>
        </mxCell>
        <mxCell id="oe4inus-EE1RmJJnrVE--21" value="&lt;b&gt;Verification Token&lt;/b&gt;" style="text;html=1;align=center;verticalAlign=middle;whiteSpace=wrap;rounded=0;" vertex="1" parent="1">
          <mxGeometry x="268" y="148" width="110" height="20" as="geometry" />
        </mxCell>
        <mxCell id="oe4inus-EE1RmJJnrVE--22" value="" style="endArrow=classic;html=1;rounded=0;exitX=0.192;exitY=0.967;exitDx=0;exitDy=0;exitPerimeter=0;entryX=0.956;entryY=-0.067;entryDx=0;entryDy=0;entryPerimeter=0;strokeWidth=2;" edge="1" parent="1" source="oe4inus-EE1RmJJnrVE--4" target="oe4inus-EE1RmJJnrVE--7">
          <mxGeometry width="50" height="50" relative="1" as="geometry">
            <mxPoint x="468" y="388" as="sourcePoint" />
            <mxPoint x="518" y="338" as="targetPoint" />
            <Array as="points">
              <mxPoint x="718" y="598" />
            </Array>
          </mxGeometry>
        </mxCell>
        <mxCell id="oe4inus-EE1RmJJnrVE--23" value="" style="endArrow=classic;html=1;rounded=0;exitX=0.708;exitY=0.017;exitDx=0;exitDy=0;exitPerimeter=0;entryX=0.7;entryY=1.033;entryDx=0;entryDy=0;entryPerimeter=0;strokeWidth=2;" edge="1" parent="1" source="oe4inus-EE1RmJJnrVE--4" target="oe4inus-EE1RmJJnrVE--8">
          <mxGeometry width="50" height="50" relative="1" as="geometry">
            <mxPoint x="850.0300000000002" y="78" as="sourcePoint" />
            <mxPoint x="808" y="258.01" as="targetPoint" />
            <Array as="points" />
          </mxGeometry>
        </mxCell>
        <mxCell id="oe4inus-EE1RmJJnrVE--24" value="&lt;b&gt;Request for data&lt;/b&gt;" style="text;html=1;align=center;verticalAlign=middle;whiteSpace=wrap;rounded=0;" vertex="1" parent="1">
          <mxGeometry x="638" y="568" width="120" height="30" as="geometry" />
        </mxCell>
        <mxCell id="oe4inus-EE1RmJJnrVE--25" value="&lt;b&gt;Send the Decision&amp;nbsp;&lt;/b&gt;" style="text;html=1;align=center;verticalAlign=middle;whiteSpace=wrap;rounded=0;" vertex="1" parent="1">
          <mxGeometry x="658" y="198" width="140" height="40" as="geometry" />
        </mxCell>
        <mxCell id="oe4inus-EE1RmJJnrVE--26" value="&lt;div&gt;&lt;font style=&quot;font-size: 14px;&quot;&gt;&lt;b&gt;1.4&lt;/b&gt;&lt;/font&gt;&lt;/div&gt;&lt;font size=&quot;3&quot; style=&quot;&quot;&gt;&lt;b&gt;Schedule Viewing&lt;/b&gt;&lt;/font&gt;" style="rounded=0;whiteSpace=wrap;html=1;" vertex="1" parent="1">
          <mxGeometry x="1123" y="288" width="150" height="55" as="geometry" />
        </mxCell>
        <mxCell id="oe4inus-EE1RmJJnrVE--27" value="" style="endArrow=classic;html=1;rounded=0;exitX=1;exitY=0.5;exitDx=0;exitDy=0;entryX=0;entryY=0.5;entryDx=0;entryDy=0;strokeWidth=2;" edge="1" parent="1" source="oe4inus-EE1RmJJnrVE--4" target="oe4inus-EE1RmJJnrVE--26">
          <mxGeometry width="50" height="50" relative="1" as="geometry">
            <mxPoint x="698" y="408" as="sourcePoint" />
            <mxPoint x="748" y="358" as="targetPoint" />
          </mxGeometry>
        </mxCell>
        <mxCell id="oe4inus-EE1RmJJnrVE--28" value="&lt;b&gt;If Applicable&lt;/b&gt;" style="text;html=1;align=center;verticalAlign=middle;whiteSpace=wrap;rounded=0;" vertex="1" parent="1">
          <mxGeometry x="963" y="280" width="60" height="30" as="geometry" />
        </mxCell>
        <mxCell id="oe4inus-EE1RmJJnrVE--31" value="&lt;b&gt;Take&lt;/b&gt;&amp;nbsp;&lt;b style=&quot;text-align: left; text-wrap: nowrap;&quot;&gt;Appointments&lt;/b&gt;" style="text;html=1;align=center;verticalAlign=middle;whiteSpace=wrap;rounded=0;" vertex="1" parent="1">
          <mxGeometry x="868" y="203" width="60" height="30" as="geometry" />
        </mxCell>
        <mxCell id="oe4inus-EE1RmJJnrVE--62" value="&lt;b&gt;Branch Staff&lt;/b&gt;" style="ellipse;whiteSpace=wrap;html=1;strokeWidth=2;" vertex="1" parent="1">
          <mxGeometry x="795" y="640" width="120" height="80" as="geometry" />
        </mxCell>
        <mxCell id="oe4inus-EE1RmJJnrVE--63" value="&lt;b&gt;&amp;nbsp;D4&amp;nbsp; &amp;nbsp; &amp;nbsp;Staff Record&lt;/b&gt;" style="html=1;dashed=0;whitespace=wrap;shape=mxgraph.dfd.dataStoreID;align=left;spacingLeft=3;points=[[0,0],[0.5,0],[1,0],[0,0.5],[1,0.5],[0,1],[0.5,1],[1,1]];shadow=0;glass=0;comic=0;labelBackgroundColor=none;strokeWidth=3;fillColor=none;fontColor=#000000;" vertex="1" parent="1">
          <mxGeometry x="378" y="110" width="190" height="30" as="geometry" />
        </mxCell>
        <mxCell id="oe4inus-EE1RmJJnrVE--64" value="&lt;div&gt;&lt;b style=&quot;font-size: medium; background-color: initial;&quot;&gt;2.1&lt;/b&gt;&lt;/div&gt;&lt;div&gt;&lt;b style=&quot;font-size: medium; background-color: initial;&quot;&gt;Select Staff for Viewing&lt;/b&gt;&lt;br&gt;&lt;/div&gt;" style="rounded=0;whiteSpace=wrap;html=1;" vertex="1" parent="1">
          <mxGeometry x="733" y="430" width="210" height="60" as="geometry" />
        </mxCell>
        <mxCell id="oe4inus-EE1RmJJnrVE--65" value="" style="endArrow=classic;html=1;rounded=0;exitX=0.667;exitY=0;exitDx=0;exitDy=0;exitPerimeter=0;entryX=0.29;entryY=0.983;entryDx=0;entryDy=0;entryPerimeter=0;strokeWidth=2;" edge="1" parent="1" target="oe4inus-EE1RmJJnrVE--64">
          <mxGeometry width="50" height="50" relative="1" as="geometry">
            <mxPoint x="803.04" y="640" as="sourcePoint" />
            <mxPoint x="518" y="430" as="targetPoint" />
          </mxGeometry>
        </mxCell>
        <mxCell id="oe4inus-EE1RmJJnrVE--66" value="" style="endArrow=classic;html=1;rounded=0;exitX=0;exitY=0.25;exitDx=0;exitDy=0;strokeWidth=2;" edge="1" parent="1" source="oe4inus-EE1RmJJnrVE--64">
          <mxGeometry width="50" height="50" relative="1" as="geometry">
            <mxPoint x="468" y="360" as="sourcePoint" />
            <mxPoint x="573" y="130" as="targetPoint" />
            <Array as="points">
              <mxPoint x="643" y="445" />
              <mxPoint x="643" y="130" />
            </Array>
          </mxGeometry>
        </mxCell>
        <mxCell id="oe4inus-EE1RmJJnrVE--67" value="" style="endArrow=classic;html=1;rounded=0;exitX=0.079;exitY=1.133;exitDx=0;exitDy=0;exitPerimeter=0;entryX=0;entryY=0.75;entryDx=0;entryDy=0;strokeWidth=2;" edge="1" parent="1" source="oe4inus-EE1RmJJnrVE--63" target="oe4inus-EE1RmJJnrVE--64">
          <mxGeometry width="50" height="50" relative="1" as="geometry">
            <mxPoint x="623" y="350" as="sourcePoint" />
            <mxPoint x="673" y="300" as="targetPoint" />
            <Array as="points">
              <mxPoint x="393" y="470" />
            </Array>
          </mxGeometry>
        </mxCell>
        <mxCell id="oe4inus-EE1RmJJnrVE--68" value="&lt;div&gt;&lt;span style=&quot;font-size: 14px;&quot;&gt;&lt;b&gt;2.2&lt;/b&gt;&lt;/span&gt;&lt;/div&gt;&lt;font size=&quot;3&quot;&gt;&lt;b&gt;Assign Viewing Appointment&lt;/b&gt;&lt;/font&gt;" style="rounded=0;whiteSpace=wrap;html=1;" vertex="1" parent="1">
          <mxGeometry x="993" y="430" width="280" height="60" as="geometry" />
        </mxCell>
        <mxCell id="oe4inus-EE1RmJJnrVE--69" value="" style="endArrow=classic;html=1;rounded=0;exitX=1;exitY=0.5;exitDx=0;exitDy=0;entryX=0;entryY=0.5;entryDx=0;entryDy=0;" edge="1" parent="1" source="oe4inus-EE1RmJJnrVE--64" target="oe4inus-EE1RmJJnrVE--68">
          <mxGeometry width="50" height="50" relative="1" as="geometry">
            <mxPoint x="623" y="470" as="sourcePoint" />
            <mxPoint x="673" y="420" as="targetPoint" />
          </mxGeometry>
        </mxCell>
        <mxCell id="oe4inus-EE1RmJJnrVE--71" value="" style="endArrow=classic;html=1;rounded=0;exitX=0.947;exitY=1;exitDx=0;exitDy=0;exitPerimeter=0;entryX=0.05;entryY=0;entryDx=0;entryDy=0;entryPerimeter=0;strokeWidth=2;" edge="1" parent="1" source="oe4inus-EE1RmJJnrVE--8" target="oe4inus-EE1RmJJnrVE--68">
          <mxGeometry width="50" height="50" relative="1" as="geometry">
            <mxPoint x="903" y="133" as="sourcePoint" />
            <mxPoint x="953" y="83" as="targetPoint" />
            <Array as="points">
              <mxPoint x="1007" y="133" />
            </Array>
          </mxGeometry>
        </mxCell>
        <mxCell id="oe4inus-EE1RmJJnrVE--72" value="" style="endArrow=classic;html=1;rounded=0;exitX=0.289;exitY=-0.083;exitDx=0;exitDy=0;exitPerimeter=0;entryX=0.974;entryY=0.233;entryDx=0;entryDy=0;entryPerimeter=0;strokeWidth=2;" edge="1" parent="1" source="oe4inus-EE1RmJJnrVE--68" target="oe4inus-EE1RmJJnrVE--8">
          <mxGeometry width="50" height="50" relative="1" as="geometry">
            <mxPoint x="623" y="350" as="sourcePoint" />
            <mxPoint x="673" y="300" as="targetPoint" />
            <Array as="points">
              <mxPoint x="1073" y="110" />
            </Array>
          </mxGeometry>
        </mxCell>
        <mxCell id="oe4inus-EE1RmJJnrVE--73" value="&lt;b&gt;Send the Decision&amp;nbsp;&lt;/b&gt;" style="text;html=1;align=center;verticalAlign=middle;whiteSpace=wrap;rounded=0;" vertex="1" parent="1">
          <mxGeometry x="893" y="140" width="130" height="33" as="geometry" />
        </mxCell>
        <mxCell id="oe4inus-EE1RmJJnrVE--74" value="&lt;b&gt;Viewing Appointment Details (to Viewing Appointments&lt;/b&gt;" style="text;html=1;align=center;verticalAlign=middle;whiteSpace=wrap;rounded=0;" vertex="1" parent="1">
          <mxGeometry x="1113" y="118" width="180" height="30" as="geometry" />
        </mxCell>
        <mxCell id="oe4inus-EE1RmJJnrVE--75" value="" style="endArrow=none;dashed=1;html=1;rounded=0;strokeWidth=3;entryX=1;entryY=0.563;entryDx=0;entryDy=0;entryPerimeter=0;" edge="1" parent="1" target="oe4inus-EE1RmJJnrVE--1">
          <mxGeometry width="50" height="50" relative="1" as="geometry">
            <mxPoint x="86" y="393.08" as="sourcePoint" />
            <mxPoint x="1310" y="390" as="targetPoint" />
          </mxGeometry>
        </mxCell>
        <mxCell id="oe4inus-EE1RmJJnrVE--76" value="&lt;font style=&quot;font-size: 18px;&quot;&gt;&lt;b style=&quot;&quot;&gt;2. Schedule Viewing(If Applicable)&lt;/b&gt;&lt;/font&gt;" style="text;html=1;align=center;verticalAlign=middle;whiteSpace=wrap;rounded=0;" vertex="1" parent="1">
          <mxGeometry x="115" y="518" width="360" height="30" as="geometry" />
        </mxCell>
      </root>
    </mxGraphModel>
  </diagram>
</mxfile>
